<svg width="21" height="21" viewBox="0 0 21 21" fill="none" xmlns="http://www.w3.org/2000/svg">
<path d="M10.9609 0.5C8.30905 0.5 5.76551 1.55358 3.88939 3.42846C2.0144 5.30434 0.960938 7.84811 0.960938 10.5C0.960938 13.1519 2.01451 15.6954 3.88939 17.5715C5.76528 19.4465 8.30905 20.5 10.9609 20.5C13.6128 20.5 16.1564 19.4464 18.0325 17.5715C19.9075 15.6957 20.9609 13.1519 20.9609 10.5C20.9583 7.84903 19.9038 5.30709 18.0288 3.43211C16.1539 1.55714 13.6119 0.502743 10.9609 0.5ZM11.6752 9.78571C11.6725 10.5741 11.035 11.2116 10.2467 11.2143H5.24665C4.852 11.2143 4.53237 10.8947 4.53237 10.5C4.53237 10.1053 4.852 9.78571 5.24665 9.78571H10.2467V4.07143C10.2467 3.67678 10.5663 3.35714 10.9609 3.35714C11.3556 3.35714 11.6752 3.67678 11.6752 4.07143V9.78571Z" fill="#F8AD1F"/>
</svg>
