<svg width="22" height="16" viewBox="0 0 22 16" fill="none" xmlns="http://www.w3.org/2000/svg">
<path fill-rule="evenodd" clip-rule="evenodd" d="M21.0533 14.7439L14.4753 7.80873L12.4182 9.63003C11.8741 10.1115 11.0484 10.1115 10.5043 9.63003L8.44728 7.80873L1.86925 14.7439C2.27612 15.0609 2.78919 15.25 3.3476 15.25H19.575C20.1334 15.25 20.6465 15.0609 21.0533 14.7439ZM7.73721 7.17924L1.2664 1.44894C1.0719 1.7883 0.960938 2.18051 0.960938 2.59855V12.9015C0.960938 13.3066 1.06474 13.6883 1.24969 14.0206L7.73721 7.17924ZM21.6557 1.44894L15.1849 7.17924L21.6722 14.0206C21.8571 13.6883 21.9609 13.3067 21.9609 12.9015V2.59858C21.9609 2.18054 21.8502 1.7883 21.6557 1.44894ZM1.89167 0.737326L11.1425 8.93146C11.3238 9.09234 11.5983 9.09234 11.7796 8.93146L21.0304 0.737326C20.6271 0.432022 20.1224 0.25 19.5747 0.25H3.34726C2.79958 0.25 2.29496 0.432013 1.89167 0.737326Z" fill="#F8AD1F"/>
</svg>
