<svg width="15" height="20" viewBox="0 0 15 20" fill="none" xmlns="http://www.w3.org/2000/svg">
<path d="M7.48047 0C3.35547 0 0 3.35547 0 7.48047C0 8.82422 0.632812 10.5195 1.92969 12.6641C3.00781 14.4453 4.34375 16.2148 5.51953 17.7734C6.0625 18.4922 6.57422 19.1719 6.96875 19.7344C7.08594 19.9023 7.27734 20 7.48047 20C7.68359 20 7.875 19.9023 7.99219 19.7344C8.38672 19.1719 8.89844 18.4922 9.44141 17.7734C10.6172 16.2148 11.9492 14.4453 13.0312 12.6641C14.3281 10.5195 14.9609 8.82422 14.9609 7.48047C14.9609 3.35547 11.6055 0 7.48047 0ZM7.48047 10.9375C5.57422 10.9375 4.02344 9.38672 4.02344 7.48047C4.02344 5.57422 5.57422 4.02344 7.48047 4.02344C9.38672 4.02344 10.9375 5.57422 10.9375 7.48047C10.9375 9.38672 9.38672 10.9375 7.48047 10.9375Z" fill="#F8AD1F"/>
</svg>
