<svg width="32" height="35" viewBox="0 0 32 35" fill="none" xmlns="http://www.w3.org/2000/svg">
<path d="M24.1682 23.7007L19.7451 25.0277C19.7451 25.1382 19.7451 25.2488 19.7451 25.3594C19.6714 26.6126 18.7499 27.6447 17.4966 27.9027L17.3123 27.9396C15.6536 28.2713 13.9581 28.4925 12.2625 28.5293L10.9356 28.5662C10.7144 28.5662 10.5301 28.4925 10.3458 28.345C10.1984 28.1976 10.0878 28.0133 10.0878 27.7921C10.0878 27.571 10.1615 27.3867 10.309 27.2024C10.4564 27.055 10.6407 26.9444 10.8619 26.9444L12.2994 26.9075C13.8475 26.8707 15.3588 26.6864 16.87 26.3915L17.1649 26.3178C17.7178 26.2072 18.0864 25.7649 18.1232 25.212C18.1232 24.8802 18.0495 24.5853 17.8284 24.3273C17.6072 24.0693 17.3123 23.9587 16.9806 23.9219L9.90353 23.627C9.12947 23.5901 8.35542 23.8113 7.72881 24.2905L0.578023 29.7457C0.356865 29.93 0.320005 30.2617 0.541163 30.446L4.96433 34.8692C5.11177 35.0166 5.40664 35.0535 5.59094 34.9061L7.54451 33.3948C7.80253 33.2105 8.13426 33.0999 8.466 33.1368L13.7738 33.7266C14.8059 33.8371 15.8379 33.5423 16.6489 32.9156L25.4215 26.1703C25.7532 25.9123 25.9375 25.5806 25.9744 25.1751C26.0112 24.7696 25.8638 24.4011 25.6058 24.1062C25.2372 23.7007 24.6843 23.5533 24.1682 23.7007Z" fill="white"/>
<path d="M31.0607 19.6831H0.467168C0.061711 19.6831 -0.159447 20.1991 0.13543 20.494L1.42552 21.7472C1.49924 21.821 1.64668 21.8947 1.75726 21.8947H29.7706C29.8812 21.8947 30.0287 21.8578 30.1024 21.7472L31.3925 20.494C31.6873 20.1991 31.503 19.6831 31.0607 19.6831Z" fill="white"/>
<path d="M12.852 11.2422C10.8248 11.1316 8.90806 10.9842 7.13879 10.6525V15.9603C7.13879 16.9555 7.94971 17.7295 8.90806 17.7295H22.583C23.5782 17.7295 24.3523 16.9186 24.3523 15.9603V10.6893C22.6199 10.9842 20.7032 11.1685 18.6759 11.2422C18.639 12.3849 17.6807 13.3432 16.5012 13.3432H15.0268C13.8473 13.3432 12.8889 12.4217 12.852 11.2422Z" fill="white"/>
<path d="M6.29095 8.92005C7.9865 9.25179 10.1612 9.54667 12.852 9.65724C12.852 8.44087 13.8103 7.48252 15.0267 7.48252H16.538C17.7543 7.48252 18.7127 8.44087 18.7127 9.65724C21.3666 9.54667 23.5413 9.25179 25.2737 8.92005C25.5317 8.88319 25.6792 8.66203 25.6792 8.40401V5.63954C25.6792 4.64432 24.8682 3.87027 23.9099 3.87027H19.929V2.54332C19.929 1.14265 18.7864 0 17.3857 0H14.1052C12.7045 0 11.5619 1.14265 11.5619 2.54332V3.87027H7.65476C6.65955 3.87027 5.8855 4.64432 5.8855 5.63954V8.40401C5.8855 8.62517 6.03294 8.84633 6.29095 8.92005ZM13.7366 2.54332C13.7366 2.35902 13.8841 2.17472 14.1052 2.17472H17.3857C17.6069 2.17472 17.7543 2.32216 17.7543 2.54332V3.68597H13.7366V2.54332Z" fill="white"/>
<path d="M16.5016 11.7214C16.8334 11.7214 17.0914 11.4634 17.0914 11.1316V9.6204C17.0914 9.28866 16.8334 9.03064 16.5016 9.03064H15.0273C14.6955 9.03064 14.4375 9.28866 14.4375 9.6204V11.1316C14.4375 11.4634 14.6955 11.7214 15.0273 11.7214H16.5016Z" fill="white"/>
</svg>
