<svg width="19" height="19" viewBox="0 0 19 19" fill="none" xmlns="http://www.w3.org/2000/svg">
<path fill-rule="evenodd" clip-rule="evenodd" d="M15.086 12.0152C16.1893 12.6284 17.2933 13.2415 18.3966 13.8547C18.8715 14.1183 19.0797 14.6779 18.8928 15.1882C17.9436 17.7814 15.1634 19.1502 12.5476 18.1955C7.19118 16.2403 3.22061 12.2698 1.26547 6.91336C0.310728 4.29757 1.67951 1.51738 4.27277 0.568124C4.78302 0.381195 5.34259 0.589435 5.60685 1.06437C6.21939 2.16768 6.83254 3.27159 7.44569 4.3749C7.73309 4.89246 7.6655 5.50683 7.27216 5.94888C6.75704 6.52854 6.24192 7.1082 5.7268 7.68726C6.82645 10.3652 9.09578 12.6345 11.7737 13.7341C12.3527 13.219 12.9324 12.7039 13.5121 12.1888C13.9547 11.7954 14.5685 11.7278 15.086 12.0152Z" fill="#F8AD1F"/>
</svg>
