<svg width="25" height="25" viewBox="0 0 25 25" fill="none" xmlns="http://www.w3.org/2000/svg">
<path d="M12.5 0C5.59687 0 0 5.59687 0 12.5C0 14.845 0.658689 17.0313 1.78223 18.9067L0.111898 25L6.33545 23.3663C8.15558 24.4011 10.2568 25 12.5 25C19.4031 25 25 19.4031 25 12.5C25 5.59687 19.4031 0 12.5 0ZM8.22144 6.66911C8.42456 6.66911 8.63327 6.66787 8.81348 6.67725C9.03639 6.68245 9.27902 6.69878 9.51131 7.21232C9.78735 7.82274 10.3884 9.35407 10.4655 9.50928C10.5426 9.66448 10.5972 9.84733 10.4899 10.0505C10.3878 10.2588 10.3347 10.3849 10.1847 10.5693C10.0295 10.7484 9.85946 10.9709 9.71883 11.1064C9.56362 11.2616 9.40335 11.4318 9.58252 11.7411C9.76169 12.0505 10.3839 13.0647 11.3037 13.8835C12.486 14.9397 13.4835 15.2643 13.7939 15.4195C14.1044 15.5747 14.2841 15.5505 14.4633 15.3422C14.6477 15.1391 15.2376 14.4421 15.446 14.1317C15.6491 13.8213 15.8564 13.875 16.1377 13.977C16.4231 14.0791 17.9452 14.8289 18.2556 14.9841C18.566 15.1393 18.7695 15.2162 18.8477 15.3422C18.9279 15.4724 18.9279 16.0923 18.6707 16.8152C18.4134 17.5371 17.1499 18.2351 16.5833 18.2841C16.0114 18.3372 15.4777 18.5411 12.8662 17.513C9.71621 16.2724 7.72967 13.0461 7.57446 12.8377C7.41925 12.6346 6.31307 11.1603 6.31307 9.63949C6.31307 8.11344 7.11318 7.36608 7.39339 7.05566C7.67881 6.74525 8.0131 6.66911 8.22144 6.66911Z" fill="#F8AD1F"/>
</svg>
